<?xml version="1.0" encoding="UTF-8"?><svg id="Capa_1" xmlns="http://www.w3.org/2000/svg" viewBox="0 0 892.76 429.44"><polygon points="319.8 214.38 219.58 114.17 191.51 142.23 263.73 214.44 191.51 286.66 219.58 314.72 319.8 214.5 319.74 214.44 319.8 214.38" style="fill:#929191;"/><polygon points="577.37 278.2 574.55 278.2 561.04 294.2 547.5 278.2 544.67 278.2 544.38 278.2 542.16 278.2 542.16 316.53 547.27 316.53 547.27 285.74 561.04 302 574.78 285.74 574.78 316.53 579.89 316.53 579.89 278.2 577.67 278.2 577.37 278.2" style="fill:#0099d3;"/><polygon points="615.37 271.45 606.02 271.45 599.51 278.2 594.06 278.2 594.06 316.53 616.58 316.53 616.58 311.63 599.17 311.63 599.17 299.81 616.58 299.81 616.58 294.91 599.17 294.91 599.17 283.09 616.58 283.09 616.58 278.2 605.55 278.2 615.37 271.45" style="fill:#0099d3;"/><polygon points="657.85 278.2 651.89 278.2 643.71 290.97 635.57 278.2 629.61 278.2 640.75 295.61 627.39 316.53 633.32 316.53 643.71 300.27 654.14 316.53 660.09 316.53 646.68 295.61 657.85 278.2" style="fill:#0099d3;"/><rect x="671.18" y="278.2" width="5.11" height="38.33" style="fill:#0099d3;"/><path d="m722.68,308.31c-3.09,2.47-6.76,3.72-10.92,3.72-4.59,0-8.41-1.42-11.65-4.34-3.2-2.88-4.76-6.26-4.76-10.33s1.56-7.42,4.76-10.31c3.24-2.92,7.05-4.34,11.65-4.34,4.16,0,7.83,1.25,10.92,3.72l.9.72,3.99-3.18-1.37-1.13c-4.08-3.36-8.93-5.07-14.44-5.07-5.91,0-11.02,1.92-15.2,5.7-4.21,3.82-6.34,8.49-6.34,13.89s2.14,10.12,6.35,13.92c4.17,3.77,9.28,5.68,15.19,5.68,5.5,0,10.36-1.7,14.43-5.04l1.38-1.13-3.99-3.19-.9.72Z" style="fill:#0099d3;"/><path d="m775.43,283.39c-4.19-3.78-9.31-5.7-15.22-5.7s-11.01,1.92-15.19,5.7c-4.23,3.82-6.38,8.5-6.38,13.92s2.14,10.12,6.37,13.94c4.19,3.78,9.3,5.7,15.19,5.7s11.03-1.92,15.22-5.7c4.23-3.82,6.38-8.51,6.38-13.94s-2.14-10.1-6.38-13.92Zm-3.53,24.28c-3.25,2.94-7.08,4.37-11.69,4.37s-8.41-1.43-11.66-4.36c-3.21-2.9-4.77-6.29-4.77-10.36s1.56-7.43,4.77-10.33c3.25-2.94,7.07-4.36,11.66-4.36s8.44,1.43,11.69,4.36c3.21,2.9,4.77,6.28,4.77,10.33s-1.56,7.46-4.77,10.36Z" style="fill:#0099d3;"/><path d="m420.15,255.58h-58.29c-8.66,0-15.6-2.67-20.95-8.07-5.22-5.4-7.8-11.56-7.8-18.61v-26.8c0-7.24,2.58-13.46,7.74-18.73,5.22-5.27,12.22-7.94,21.01-7.94h64l-5.71,17.59h-52.89c-3.69,0-6.82,1.14-9.34,3.37-2.4,2.22-3.56,5.14-3.56,8.76v20.32c0,3.62,1.23,6.54,3.63,8.7,2.46,2.16,5.53,3.24,9.27,3.3h58.6l-5.71,18.1Z" style="fill:#929191;"/><path d="m524.48,207.06l-5.28,16.32h-57v14.35h67.2l-5.77,17.85h-82.56v-80.14h88.33l-5.77,17.84h-61.43v13.78h62.29Z" style="fill:#929191;"/><path d="m564.01,224.21c-7.43,0-13.51-2.41-18.18-7.3-4.67-4.89-7-10.73-7-17.46s2.33-12.32,7-17.08c4.48-4.64,10.5-6.92,18.18-6.92h65.66l-5.83,17.27h-57.56c-1.66,0-3.07.63-4.24,1.84-1.1,1.14-1.72,2.6-1.78,4.45.06,1.52.68,2.92,1.78,4.19,1.29,1.21,2.83,1.84,4.55,1.84h42.63c7.8,0,14.01,2.41,18.67,7.3,4.79,5.02,7.19,10.86,7.19,17.59s-2.4,13.02-7.19,18.03c-4.85,5.08-11.06,7.62-18.67,7.62h-69.41l5.84-17.34h62.78c1.97,0,3.63-.7,4.98-2.1,1.35-1.39,2.03-3.05,2.03-4.95s-.68-3.56-1.97-4.89c-1.29-1.4-2.83-2.09-4.73-2.09h-44.72Z" style="fill:#929191;"/><path d="m727.09,175.44h23.89l-43.06,80.14h-23.53l-43.12-80.14h24.51l30.65,59.31,30.65-59.31Z" style="fill:#929191;"/><path d="m781.84,175.44v80.14h-21.13v-80.14h21.13Z" style="fill:#929191;"/><path d="m176.28,157.3l-57.03,57.03,57.03,57.03,57.03-57.03-57.03-57.03Zm-23.35,57.03l23.35-23.35,23.35,23.35-23.35,23.35-23.35-23.35Z" style="fill:#0099d3;"/></svg>